<mxfile host="app.diagrams.net" modified="2023-12-22T18:38:59.057Z" agent="Mozilla/5.0 (Windows NT 10.0; Win64; x64) AppleWebKit/537.36 (KHTML, like Gecko) Chrome/120.0.0.0 Safari/537.36" etag="B6PYEu6M6mlh7IUsbJon" version="22.1.11" type="device">
  <diagram name="Página-1" id="9Q3r8Wk0-lh1teVZr32K">
    <mxGraphModel dx="1819" dy="428" grid="1" gridSize="10" guides="1" tooltips="1" connect="1" arrows="1" fold="1" page="1" pageScale="1" pageWidth="827" pageHeight="1169" math="0" shadow="0">
      <root>
        <mxCell id="0" />
        <mxCell id="1" parent="0" />
        <mxCell id="RmVtzICOcMv35ykDRuv6-1" value="&amp;lt;&amp;lt;Root&amp;gt;&amp;gt;&lt;br style=&quot;border-color: var(--border-color);&quot;&gt;&amp;lt;&amp;lt;Entity&amp;gt;&amp;gt;&lt;br style=&quot;border-color: var(--border-color);&quot;&gt;Utilizador" style="rounded=0;whiteSpace=wrap;html=1;" vertex="1" parent="1">
          <mxGeometry x="-317.5" y="435" width="120" height="60" as="geometry" />
        </mxCell>
        <mxCell id="RmVtzICOcMv35ykDRuv6-2" value="&amp;lt;&amp;lt;Value Object&amp;gt;&amp;gt;&lt;br style=&quot;border-color: var(--border-color);&quot;&gt;Email" style="rounded=0;whiteSpace=wrap;html=1;" vertex="1" parent="1">
          <mxGeometry x="-317.5" y="320" width="120" height="60" as="geometry" />
        </mxCell>
        <mxCell id="RmVtzICOcMv35ykDRuv6-3" value="" style="endArrow=diamondThin;endFill=1;endSize=24;html=1;rounded=0;exitX=0.5;exitY=0;exitDx=0;exitDy=0;entryX=0.5;entryY=1;entryDx=0;entryDy=0;" edge="1" parent="1" source="RmVtzICOcMv35ykDRuv6-1" target="RmVtzICOcMv35ykDRuv6-2">
          <mxGeometry width="160" relative="1" as="geometry">
            <mxPoint x="170" y="557" as="sourcePoint" />
            <mxPoint x="212.85000000000002" y="895.28" as="targetPoint" />
          </mxGeometry>
        </mxCell>
        <mxCell id="RmVtzICOcMv35ykDRuv6-4" value="&amp;lt;&amp;lt;Value Object&amp;gt;&amp;gt;&lt;br style=&quot;border-color: var(--border-color);&quot;&gt;Número de Contribuinte" style="rounded=0;whiteSpace=wrap;html=1;" vertex="1" parent="1">
          <mxGeometry x="-197.50000000000003" y="506.76" width="120" height="60" as="geometry" />
        </mxCell>
        <mxCell id="RmVtzICOcMv35ykDRuv6-5" value="" style="endArrow=diamondThin;endFill=1;endSize=24;html=1;rounded=0;exitX=0.5;exitY=1;exitDx=0;exitDy=0;entryX=0;entryY=0.5;entryDx=0;entryDy=0;" edge="1" parent="1" source="RmVtzICOcMv35ykDRuv6-1" target="RmVtzICOcMv35ykDRuv6-4">
          <mxGeometry width="160" relative="1" as="geometry">
            <mxPoint x="180" y="567" as="sourcePoint" />
            <mxPoint x="222.85000000000002" y="905.28" as="targetPoint" />
          </mxGeometry>
        </mxCell>
        <mxCell id="RmVtzICOcMv35ykDRuv6-6" value="&amp;lt;&amp;lt;Value Object&amp;gt;&amp;gt;&lt;br style=&quot;border-color: var(--border-color);&quot;&gt;Número de telefone" style="rounded=0;whiteSpace=wrap;html=1;" vertex="1" parent="1">
          <mxGeometry x="-280" y="590" width="120" height="60" as="geometry" />
        </mxCell>
        <mxCell id="RmVtzICOcMv35ykDRuv6-7" value="" style="endArrow=diamondThin;endFill=1;endSize=24;html=1;rounded=0;exitX=0.5;exitY=1;exitDx=0;exitDy=0;entryX=0.5;entryY=0;entryDx=0;entryDy=0;" edge="1" parent="1" source="RmVtzICOcMv35ykDRuv6-1" target="RmVtzICOcMv35ykDRuv6-6">
          <mxGeometry width="160" relative="1" as="geometry">
            <mxPoint x="190" y="577" as="sourcePoint" />
            <mxPoint x="232.85000000000002" y="915.28" as="targetPoint" />
          </mxGeometry>
        </mxCell>
        <mxCell id="RmVtzICOcMv35ykDRuv6-8" value="&amp;lt;&amp;lt;Value Object&amp;gt;&amp;gt;&lt;br style=&quot;border-color: var(--border-color);&quot;&gt;Password" style="rounded=0;whiteSpace=wrap;html=1;" vertex="1" parent="1">
          <mxGeometry x="-490" y="380" width="120" height="60" as="geometry" />
        </mxCell>
        <mxCell id="RmVtzICOcMv35ykDRuv6-9" value="" style="endArrow=diamondThin;endFill=1;endSize=24;html=1;rounded=0;entryX=1;entryY=0.5;entryDx=0;entryDy=0;exitX=0;exitY=0.5;exitDx=0;exitDy=0;" edge="1" parent="1" source="RmVtzICOcMv35ykDRuv6-1" target="RmVtzICOcMv35ykDRuv6-8">
          <mxGeometry width="160" relative="1" as="geometry">
            <mxPoint x="-260" y="567" as="sourcePoint" />
            <mxPoint x="-217.14999999999998" y="905.28" as="targetPoint" />
          </mxGeometry>
        </mxCell>
        <mxCell id="RmVtzICOcMv35ykDRuv6-10" value="&amp;lt;&amp;lt;Value Object&amp;gt;&amp;gt;&lt;br style=&quot;border-color: var(--border-color);&quot;&gt;Nome" style="rounded=0;whiteSpace=wrap;html=1;" vertex="1" parent="1">
          <mxGeometry x="-420" y="590" width="120" height="60" as="geometry" />
        </mxCell>
        <mxCell id="RmVtzICOcMv35ykDRuv6-11" value="" style="endArrow=diamondThin;endFill=1;endSize=24;html=1;rounded=0;exitX=0.5;exitY=1;exitDx=0;exitDy=0;entryX=0.5;entryY=0;entryDx=0;entryDy=0;" edge="1" parent="1" source="RmVtzICOcMv35ykDRuv6-1" target="RmVtzICOcMv35ykDRuv6-10">
          <mxGeometry width="160" relative="1" as="geometry">
            <mxPoint x="-387" y="596.88" as="sourcePoint" />
            <mxPoint x="102.85000000000002" y="1017.16" as="targetPoint" />
          </mxGeometry>
        </mxCell>
        <mxCell id="RmVtzICOcMv35ykDRuv6-12" value="&amp;lt;&amp;lt;Value Object&amp;gt;&amp;gt;&lt;br style=&quot;border-color: var(--border-color);&quot;&gt;Estado" style="rounded=0;whiteSpace=wrap;html=1;" vertex="1" parent="1">
          <mxGeometry x="-490" y="520" width="120" height="60" as="geometry" />
        </mxCell>
        <mxCell id="RmVtzICOcMv35ykDRuv6-13" value="&amp;lt;&amp;lt;Value Object&amp;gt;&amp;gt;&lt;br style=&quot;border-color: var(--border-color);&quot;&gt;Role" style="rounded=0;whiteSpace=wrap;html=1;" vertex="1" parent="1">
          <mxGeometry x="-520" y="450" width="120" height="60" as="geometry" />
        </mxCell>
        <mxCell id="RmVtzICOcMv35ykDRuv6-14" value="" style="endArrow=diamondThin;endFill=1;endSize=24;html=1;rounded=0;exitX=0;exitY=0.5;exitDx=0;exitDy=0;entryX=1;entryY=0.5;entryDx=0;entryDy=0;" edge="1" parent="1" source="RmVtzICOcMv35ykDRuv6-1" target="RmVtzICOcMv35ykDRuv6-13">
          <mxGeometry width="160" relative="1" as="geometry">
            <mxPoint x="-247" y="505" as="sourcePoint" />
            <mxPoint x="-340" y="620" as="targetPoint" />
          </mxGeometry>
        </mxCell>
        <mxCell id="RmVtzICOcMv35ykDRuv6-15" value="" style="endArrow=diamondThin;endFill=1;endSize=24;html=1;rounded=0;exitX=0;exitY=0.5;exitDx=0;exitDy=0;entryX=1;entryY=0.5;entryDx=0;entryDy=0;" edge="1" parent="1" source="RmVtzICOcMv35ykDRuv6-1" target="RmVtzICOcMv35ykDRuv6-12">
          <mxGeometry width="160" relative="1" as="geometry">
            <mxPoint x="-237" y="515" as="sourcePoint" />
            <mxPoint x="-330" y="630" as="targetPoint" />
          </mxGeometry>
        </mxCell>
        <mxCell id="RmVtzICOcMv35ykDRuv6-16" value="" style="shape=stencil(pZ3ZkiQ3jkW/pl7DuC/PPdP/ITOVumStUclK1bP8/ZBTFhGZ93ocKm3etACRTncSBC4ugE/5b39++emPz59S+PP7t6///Pxfv/78/cun/G+fUvr19y+fv/36ff3Tp/zvn/Lffvn67fM/vn391+8///j3P37akvuf/uPrf+5f+O8fei3dQt9aKfzPj/8SbiP/33/4+w/53379/a18vPXyMflcVT6ifNDf7xPkw63p7/eO8imofH0tX+etJ5WH9S75OFUe1luHP3+D9S75GFUe1lv7rdrvN5QP+n4avZ92K+0j8vU29X0e5LO+T5Qvt2HrZfls75Pk861/aL3Z9xvKp1vT/X+QDx96nngret5RPnzwfa7zlT8gX+at2fuB/VnGbdrzDJTPdt7hPJZ+P05/zT4s+aDrJXtV1nnR/Ub2s9Tb0OcftN56S3q+Jj1/0f22DHBC+TBEPgaQz7eaVZ6eP6v9ibcE9q2kW9HnySQfb7OJfKHvtf53FflG+yfo/oz3C+SVvJzHeD9wr+Tt/Ux4/jxv9f1+SLcIz7PkQxX5BM+Th57fdDfYr+RjEflKz9NvXX+f7MOST0PkB/1+uw19nkm/v87v+/28Niytt6l9yHcDeS1fb03laT9nO++Z32fR9Wb0H5a83O8Z7dWSDyo/4bznfDffd/lyi/T76/VNkc9gf/L6nEHkC6036Xl5GMhX8jGLPL6feHcf7/IV7e2Sz0nkE613XQ9T5AvLi/2p9wP9Sj7o8w+QT8v+vP/9dSDAfi558W/bfYNfyw+9vx4H9JV81Oeh75v63R1/yg+wD0tezmO/B1jX8u3uXjzlaT/v1zFEvtL7rPft+JTvtN56NzdPefIf1nYXf37g/Z7Mngzcn0te7rtxN5DX8uZvDP5eWe3VRHu+r6sp8pn2p9mHdSDo/Ue1hxPj2e0eJZEnf+Dpnj78h4AGZSnkpgr0xeJ6gKIKFR5pKaiLyD70UohJFWjRcagTEeM9TH+lILfMUiC3JnY1u0sBF93Nb41oSJeCOt7pfjSuFZparqWQwFQsBQmFl0KBvR1XLJ9VgYzpUpDLYCnQ6VwKSR4p31/DtYKF/0uB7OlSqPYXyIFaCrGpAkWI63+PpAq4W7OFBAV9xqUgNiayk7PfelQFilKWgr6lZff5L+iHq7yGaHupYmC2FCRQXwpkKZeCeO5rwwfafFGhm31C6C+Eu6v7RoHAvG3nZC/1O/z5SqEWVUBjHOxMd35LQfHgZQsjvKWp/sWSryivJmBggDBtARMt8VT8eMlTADj0E6wLjwCHoYfzAAg/3KGHfEQr3O/wzht5OpqG7x4C9q4HcwfIsIMe7u5DfhlU+F5NLcUOAAmQV9u1PL4Kv1/te3FAVO9P+0ae9sMjHHvItzsCdA3IqL+WOt5QK1wtKo+A5D1cesiPW6YAU2/9JY8Akfr76wQhwKL40IoIMwUIGt+siBYDIsXbljx9r6TX8YrICaCLigfkzE6O5mdyQfsQ77/2kK9oP81/34gReTiGJ3UEEIKe3yVP+yFovisPBMSC4n/54f+/kBe/tzBAHTT/80RwX8m/Py+FAb1l7d+/n8KAVVD7WSq64UHzgaUdvpfs551hwPej8o8M4Sv59+e9TLSftt4a0P4ExSd2xgnfp3zfnQHD9cp9VzOGEOZi1YoAY1R7WxlQihop1s6utOK7dd5P9Ct7JfhTYMBB77vGgeiyzyJ/AMx1P7eCz5/v1vghXzkBpP5baxjAFfXHWr8DFi/kJVBvA/2ZqvnDNg/ycv92vh/bHW56yMe7BXshL+vt6W7BXvlvgv9lfP9d7UMvmOBb/uf799MrArxd85lLnhKaQ2GP3vB8Pbyjh3y/w0sv5CUe6eNuwV7FCyZP9+nQfGOfiJFM9YcH43NT7e0I+H6mRsEjHn5f7O2ICMBODctHwv0wFY9c8nRepsZHgxOC8x59vJEn/2QHwAJQc8ZuKegXy/cz8UpBcIXxIJW8VJBvwDbXo/6lQJfGVuiq0FihFFWYrCBx4TgAQkEP5lKohLMFzQQthcFQR5dHaowKB7VdSwExqqDBxlIg9luMlu3o93z5K4VoCuRuRYs3lgIlLKMR+AZneOKDUPFGgVIe0UKspTD5LQl8OSba7A0uDlVAoNqiyhkYbE8a1k92kzeimlWB/N6l0O0vHCBYuXkmU2miuXZLgaC8DVQXVRj0Wg2cmAmDlZjVei8FhGCLhnNLga6rjf+bAvkjO8MgCbqMjJpY1dxPpnTsLElWBcwl1YtHIh8+Nr1QZsEgc+PYURUIZVwKErbMR+L3WqFrHLgUiJiycWxTwA83bHtXRlqM2rQU0MxMxWaWAhrjqc78UsBFT822LwVMb9vFPjnp8aQjvlFInLCWAGkeGBjRPlxDyskGtE0Bc+KW3loK5PNtEFQW3dEubRLUUAXaGjtMLaqAb8lw6KWAb6neHbY3CpSX3EwSWzRduzuUlEUP5kp0M2QDY9UVLKmpHCc2z+iqgG/JwpmlQG8pG595KUwmSEkic07M6WVDhJZCZIqa7taJF3vOiqlMxjCykdznZNZcUZ9vTnTWc7XXOhG2Xwp6oUwmLraLNVCiJftunbw1DGqYzNXJ67tWUyAszMi+czK73Nj6JwUr5zkpJLsUDwpZAaKTQlGG/OktVaVIHj5cedxof3FrlG7hACfJiqFW+zzQosfF9iZeX5l3W/32iFJhUrBLcSLQUqOGx5OjrJrMSZyY6q5Zc0HzcUKuFYpy0bZtpUeq5uhOzL7UpvDnNvdgvXe91FQF8sjqMGM80Grs/IBdiljCZQS8pUDGuIWLi73AopsF4Eshk0JSAt72BEghK/ozB16Krdx5MH/ROdlpCPtwtDWWgsaiHTOLrSnVeysQ1aJbONAxnm4e0nSulhxmNdhJbFaeNTtSmrrl/7YCrKG7v9TRVPZoETsj/N3BHMbIunEWDs56zxYDdXSwloLe0x0B2l4sjuvoSnfLc+2Qhl5rtWu3Y6K0G/tzMtW9N6V2zIapk+4gQsMD1N2FY7y1D2W77dCS/sKwKKvxbp3K/5rMJ1oKajU4ATr8xDUEpJaClADNinfciGZbKyYsloKaSsbuR7KwrCJ8OrLi3ksBF50VZJ4F99IoSnzYgBQl+opZDYa8dgLEECy6FIfVgs6CqPRo9heYq7wUuiGJZCpHNwcro5kZXflFG28lBSvYWQqVCJrD3NDEr9Vhu8iPZDnUDZTT5jOS7FIg2zotRTiZZbr+dx2qQFZjJw8kzTnR11hPLNHu4PhhKYjPt74MlbZOa0WxFOhSXApaS8Tk5r3Vqiok+gtZI8XB5WJLQcCcwXjrPsHvz8NgzHiao7szr5RgL8pYGAWd9aclfShkDMA3yl1VAV+rkXgHF448Qes3CuRr7DvTaA6Uqt3XuLylwK+1WRIyIHFndmXObiYIPVJX670UcC8ZF3y5K8RtnZZD6Rw/TAtelwJF7DvME7pMQ2d9R57ySJzF38GwKRCxYMfnwigqmJ+edj90roHeKEZRBYIpNk4iHy4h1LKhG3mkiF7lBoeEdsVFeVtBeHgTPeOtYMQ63EtW9rfiX/zSUwO/FWFTBnxa8NqYWz2nFRNXRLC2grAnC1+K5t03Ljd7QsoPhYRY5VIQu9QiMnOmOSdLgVzpOTV+OFBSXaHO06JlDXWcFq0s347JYP9wG8jjvyAO1oYK2WqIc7LBSN6tWulfuNJpqmdcM9tWQxLr4dodujU2KMzmXg5QDYiGbnMv9HWuX/YLZSkQP3VaiF8G3w9WgVUYzJnWIqAc7jjjzJbKnM2u+FJhtt2GbkwBd2tTuKhwmde06uKdGaJHalb4wZ1uNu+gqwK6P00drMKlfJs78d7M5Im49xPFeCgMjEWfhJGHQsd2VbPqEc3MddjevSgwI2QpSIFALoj+7AilqwKRhTbGIAqMCUzLA+XEmy8rNrOT6LQG48JlrjqaxrbbRABaQ9LK3HTw7pPmstLkazcp2J84rTOTlQ52LrWNau6XQqFL0ZibqZ1AhGIKhM1syqIoVKRJzmj1mxXpF9MaYmyuzgFqkUfKbMiMjb17QNF3CNaDi32+YST6XRZJGNm03RrxtW6C7VQFulCG1WEfGgGOodDjs1TtlYL2JOAIZQwFc5YCeQKjWz0/hzTDmpUtBQoHRreeBB0v9icd/I0CFRtswnlVBcqLLgXZ3pv8SRCwkUlj4wr6ag1iOMQf1hNt94ZghWwKuGhj2+2GGHTiisLYkUG1YayWyHWmSyGaAjlY46rPCJmZkbXVWeTSmGHXbkzIthvWfC1yc4Jh3ZVi5CxNUr737rtDf8H7jHBDyhHtkQI3lIhmZgJ6lcOqRJ5NOF4pKDmCN6tzGNEq9WllK5yntdh4cMrfLpOBuYpu5CgmXvShzKUDBWFozX5HJLdbD0vGoXpXlmpDAk/vuuW470zv6mBwzqF3vZu5c043KmVFblq3UI8R2SWvNeaY1ux2gRR+/uo9JslGbCpEEnk8L9Vq6rnEtvjzY8ls0f2c0cte8hpPMWen6A3OOFK3nBVjBd3oxJlb4BhlNGPA2e1e4hKebtcSu9fdbqWECYNulxIXLfWorKyEJbk9WgSC5aA9auQY0d/qVgNyaEF00cOYUJElr64NRlzN0N2IsXizZEfEFizNeh5H3G87sfF+/wf0m9rQ5znMTBjKKQ3Ys7NZGo97qG+eoclTywHrGRWYT9q8RzvdF61p2BTQvW92vwRMfi15OY+B95tlmwPCIK1qjx3ukNmq95jHllrV13uQT/p9D/K231DeuIVH+fZB+Y+ttyhSfJS3mScon/37HuRtpsdBXnKtR3mbsXCQl/v6IJ/U/h/lbWYFJa6a8XaO8r6fWT7q8+N5NLriUb6Z/WF5s/9oT6IScA7yQRlvAWkfS75+yL5Z74aA/kyzHl9cC7/l9XmwpU1QFJlbpFz9PrHvtrzuN4rH9/vR/Ub+WLP4nZsL7O+r++Ekb7/P+6Hr96X4sQWfAUXVss16cDGyeyWPxSIXz4MtlC7WSy2jrt4nnveL73U6j/b7h/No9pns4cV+xmqdq/N4+H07j7xeP49cn2T2BEt7LuwVpYCu7CHF41f29nQePyR/Yf8P8na/4PNf3F8Hebsf0Z5c3L8Hebvf0X5e+A8HefNPDvLm/6D8hX91kDf/DffnhX94+H3zPw/y5t+i/IX/jM9/4Z8f5P28s7zFFwd5i19Q/iI+Osj7fib7dhHfHeR9vXSfWn+Yg/1s/n2JmdBsJsnBnjfF9wLyQ7yQ8nC/NLdXieKXrhmbg7/aNXF28Ae6ZuYOeMVw+094bBuaRQ7Y86hZz3MuLmnT9z+WpRp3OHCh7NS6poj7s1vP24j7YVOdk8gjHmv10Fze0z3jh60plnzT9VJGsdv9yzPfelImaUL8syej8eD+3/i59AzH2oqefSYbUUG6FX9zS1qvpk2YWn92NL3LZ+Sy9KIt8HimyK4nEAIcFgLuWl19Hjq/3dgKGVv474KIj8xkW/LKT8V4rVs5T+Hz1fT5C9fQWhkjz1jrVstTOR9qHBkuPu1d/Vuemda7cj8q1hf2i5ljmA/qeh4bcoK6EaEan6+h9pOLfpa88GoP9fZ2v3Tez1N7xQ0+v0b2H6fnmfr7yPgI1giIKSWGJ/BMsGFdQSeWpi15aUYZ2QEaFhDGA1kvaUlUjBhCDmO77r6i9EjJpldFTIINHxybmPOVr8Zd8V8QWCcmrItcCtKtL3KryF1zbgpYQl7Ms+HOj6NYape5CqNezJZCglVV5y8yv3wpCHoXK5YTDeP5Ry6fWAq6+RoCwLvIt6sCNhFvNlW4Ib/c6+Yjt61fCj75CTefBR17qB0d0aFeUeQ+Q7s6W94Sl+KMYTzOeSrlV2IER8bDSqIOodMu5X//lg7zr4f1N9/BAf8FMQIpcRmLTQxJzLKc1ot7+7NUMxJsRhC3hZjWoycdSsijRmh7TijT9uVK3xwzeksWQ+1JUqygHPnGi7aoa9MCqTAgaXu/xP2epjVyfE4Xe6Ugjnni3pK7+fFQBdxLSUPfHLgC1hqx5EPFX7Zgihm7067dnLgUJ6vVyJlLBK3Vy1IgwGIpSAImFy4B8anbTLncPRhEgUcJ7h4MNhcKv3S1wrHBHRKqsnryxCtrNht9dBhl0Yx3yXNddxHi+0XvfpbcFkLcn8JUvmlU2cKx/7SLvRTuVNE1ebYU8AB1RWvKoSSq6+Yrjc3MUO++cHeyXZQrH4679U1jXJeDIbOmPrtOmLs8iLmvAYPKObTYp0Y+cdbNtaZTSwUt8ObmStPag9djdwF5S/XQC2Oq772r2g/dBbIqYE2huT+7Mp+2tw1sqQPLumKwLrmH9gIXGucOBjqF69DAaWpA0CLv16ku1u7zwI8kN3U7Vv9r2waG6aZVFe7EFj+S4ICtYQi+FZIqHHaT9ts493l4f0jbYDPgPUPm6Tto0x1m0+5TLf1nIptj792SuNPQ1HYBnXGHaU0Kez69VkFwO88L2p0kpCVO5TVYrLirPg6dJAR0bKdH0kV3LE7b3VuzKuBbMhz3iaS+9AXkL0wOarq6WJ17ZU+jZg/OXe5+mNLmigPk7cQ1VUBH1NzEkbhdQNX0/VKgdpTTxs5v7I/7PGjbt3zqsaaPVE5d3HwcFjZVKDZlrPL2znq1D84ieGD27Ab5KlbUFoKdL5Rk34EnTnjLg3EIkH0yFJcu7oYE8pa47/qM1onu0LAm6JU1A2K6z8aNbxQO7Sh1KAzXx4ypqPGzV+NLWE0UuP3esKZsu1cjoWTD+ojymR4+/od7rI1uUwK4am00a5ObMa2/YWbrhYogcLUu0IWbp1pd+yycsrDM8m5iywkFnwyFmy9bZ/fKIHC2IRiHVr9WfbftOS3a+p5srINrwnU4D/sawxvmN8yIjmCbr3GK2VzpecjpTmtXfCgyHtYQuWFzi25VaduZoLJJa0c5eVR57/bheAxTt2G4G375UOXwYW6TlwLvXlzMFfEO++Rg9WKDzzqzRYyteep/n23zHTrsX/W/xwL6ZD2aD1MConUw6Jjd7eHiwyFH4GoOAUG0zbCT07SGq1kKSHO7mm6FvO5u81EGE0ObTfPhYfB7poX9BSzN8GGG3E2v+TQfbvawUQx7pEP1mc6pGUyvjJoZPc9HmbZoQlz3BBafMsYjW3Ta28AS7To0B/7EL68VrCPgjuHpLzQbXHAYzmMss8ntlarPtJjot2641IYkUQbiciIRVeJczjyipEgNtpcm5i2LO+s8irb4+B8GpIrf0xNNZbGR71sBtkbx8aETu1ZdTugiU3k5A4yiLJ8y9gbkvdawQWZHDZuVdtSwcWx/QUNZTAeNy6Fy9Koux9aR6bgcjEdfLzfzH3h/XA73I2QtV004bQX6C1ZS8gSrrxUMPnliz68UdIoEj3zLxtJ+IsPXCvHCmuEYx3AxI44QzuxjJybPQXUkYeDWSIYDT8bjk4//4OZSyZrrTsaMksf5A6+hJxv3rdMEm29TWczFJ2Bgk2VMAd+S20v22J8dhN5GHTTA9nLEFW2NpF1gJ4+yT8luFU4G7a40FiPjW4rmoTQk2u+6GB/eRGu4ivOplD1OG2DLvbuiEdYmN0+MlteeFQ1ZHBezmHCKtbVDm9zpfDMXsyrgJO5+gXvhopvNJmPcK1rXy42swRGN7h7z8KZozaYnd/169rh8AycSHh+NqrvnxtMaHB3MeKaj36KZd2u5GN5EA9k2fdmnPdFrzWZbE2++rOT4Z5/kVwo6y5XbYcVktjVi1BGTDZWLeO1uorrspYDY3W67aQoEMm3ufFIFIjzEqIse7GAthWaJFALKdmPPoApUphx9YhUTmp+dQN8oEFaxix5k0XyxR/PIBkNxMegRHZykjsbt3dx02nxB46DNfqfNF+w7NMRQY9ArazC8vhQ0E1nxno4G9g0uIYhB44edfuVFS5Q1yoGVpFH4KLy9g8YPzw7AlwpT7/XBXSGNYDQy09XUEo/MHCnbqRmPp3F/RkIIeNpkNS7XsfFCg+uBptrUEXnmjO25yF3d1UsaTEg0v20ciris6O7QFdgINjxdzJvkDq5YMWpKR7vSFeHvh9mten/0yl14tQioc6Ky29QvTs7aQJRd9kxQuo3wSgxmKqa8aWM0XV2b2nTuOlC1ZKMxHGHjThtXVRZdb+M8V1bQvTXscpTVXW4chWRF0FvhKN5mgyVMfyYrsuWuAFGxwsbMrGhNlrn6Kqr9qVxAFjTNWBt+X/MjasVUUtC8Z83INAj6PmvCODZYkTZPgAxK7KncJStosrpMrJQxZLdwbs5/v2Pyz/yH0jDbbustBXHjYCOluEjGmnQUni5g37cwY9qKrnexCK5XSB6Zq6itKVseh9/XJt39sF6ttOIu8tHGMPH3jTZ6imdgRGUkZr7vDH3LTKq0iDInZNolLc/OHHZbEL3hb8J9NRG30W8Cx3V/ponoStb7N3FKNyuFNHG9rtWKb+Qb719tGs4lysWapDf0/y39mypyQKrep7tLB/pLOs2KuW/NKkp5aqtxJ/YXpy4XGuDtHUi8HeV276486N+Kf5UixmtD7fm2GBgvSJCdeCKsjXbcFp5oeNb84DAQzZrUT4TOp9bNxXGIf8U+x8FzvtTfXvJob61uO3IOxnGRpYDJgqCfYOPcjCmID/fEuV8CWlMVEi06asIjVn4kY34tBYSbDFg8tIeIScnKkan1MdkQrnJCU7spEAMvZj2bSwEhs2wTDArWR8as1iJyT6hoPbBiRuJKLNbXIyOF9fkS3yggqm01zxtJp+9gfao2kk4uVFVMa397zvJom46EnKZoFclPJP1awWCGGDlD0s1qcH3NUtCWLxED6ehz8iJ7gkYljly3Haf6svGQv7BK2Cds/UpBvKnIPZKfLaPfKBCVOFnT6chEnR2A29QueqKoW4mbpWwHW/JUWCycbGLpxAzPBkwEIEVL74DMwMO5AR8BSDnXbpwH9pdT0cPP01CTkdY6VhHsIVpST4iZy00jEQCQCRU2JaUj3pOM1tcw/ngOSXvKkz+brEvpgRsxfKoZmdI09dLkeNe5SBUNqSdQuItfNnetIj6Xg029x/25wlvpkswpqWxN2wpT4Mw+FEyqLXk5v8yIWPLibBbGX7N1ysD9nLPaw4z4UL6YUka9QbLZE+7Cmc2/ycgzy1Wzy0y2yMYa465OTqLMeF6yB8jMuWyaYEpoD7N1VU7o6GdL6CTODwydIpYwLtij2vX3yavJxslPGEbkqez0yKRXaxER0R8oBmDyzPMnHPqUJ7ytRHMs0b4Vn6SKMU1JFrBjbXtJNn0Z85PFxtky/rf78mgXbIo2SvGpHnS/FCuV4SluS96nuDEL36Y+UEF46T6lAPFCO48B/ZkylCEasGJxyduUOLKfZao9POQzbeotj+GtRtY/yEe9Hw/y6WKqHMvb1AqUz77fDvLWBR7li0ZIR/mPvc+q99FRfup+RnlrTHGQ75qwO8pXWy/tT7u/jvI21YPOSzVAlc9jNUJOwGYlLVxMheQpO25PuEwv6P6n+HfJZ30/hGc3K+dhSKEln4qBv598asLh920/4FTOiyk7ZP+btacM6D+0pAlcvo+u5IkhdynPU3lcnvbPxXqJ73D1PglBvfpeFH9d7QfMR13st/+f/PqHP376/uXHv/zy62+//fn929d/fn77/3/5+u3zP759/dfvPz/+059ffvrj8/q3/wU=);lineShape=1;strokeColor=default;" vertex="1" parent="1">
          <mxGeometry x="-543.5835425959197" y="306.31171017443614" width="493.16028041071723" height="366.68787114348095" as="geometry" />
        </mxCell>
      </root>
    </mxGraphModel>
  </diagram>
</mxfile>
